<svg width="66" height="66" viewBox="0 0 66 66" fill="none" xmlns="http://www.w3.org/2000/svg">
<g clip-path="url(#clip0_7_4584)">
<path d="M56.0902 15.4678V61.7601C56.0902 63.042 55.0505 64.0831 53.7671 64.0831H12.7513C11.4679 64.0831 10.4282 63.042 10.4282 61.7601V4.2393C10.4282 2.95738 11.4679 1.91626 12.7513 1.91626H42.5386V13.1448C42.5386 14.4281 43.5783 15.4678 44.8617 15.4678H56.0902ZM30.7053 57.6027V43.8004H16.903V57.6027H30.7053ZM30.7053 36.4899V22.6877H16.903V36.4899H30.7053Z" fill="white"/>
<path d="M56.0909 15.4681H44.8623C43.579 15.4681 42.5393 14.4284 42.5393 13.145V1.9165L56.0909 15.4681Z" fill="white"/>
<path d="M30.7056 43.8008H16.9033V57.6031H30.7056V43.8008Z" fill="white"/>
<path d="M30.7056 22.6882H16.9033V36.4905H30.7056V22.6882Z" fill="white"/>
<path d="M53.7674 65.5H12.7514C10.6894 65.5 9.01196 63.8224 9.01196 61.7605V4.23953C9.01196 2.17755 10.6895 0.5 12.7514 0.5H42.5387C42.9144 0.5 43.2746 0.649298 43.5403 0.91489L57.0919 14.4666C57.3575 14.7323 57.5068 15.0925 57.5068 15.4682V61.7605C57.5068 63.8224 55.8292 65.5 53.7674 65.5ZM12.7514 3.33298C12.2516 3.33298 11.8449 3.73965 11.8449 4.23953V61.7603C11.8449 62.2602 12.2516 62.6669 12.7514 62.6669H53.7674C54.2671 62.6669 54.6738 62.2602 54.6738 61.7603V16.0549L41.952 3.33298H12.7514Z" fill="black"/>
<path d="M56.0901 16.8847H44.8616C42.7995 16.8847 41.1221 15.2071 41.1221 13.1451V1.91649C41.1221 1.13416 41.7564 0.5 42.5386 0.5C43.3207 0.5 43.955 1.13416 43.955 1.91649V13.1451C43.955 13.645 44.3617 14.0517 44.8616 14.0517H56.0901C56.8723 14.0517 57.5066 14.686 57.5066 15.4682C57.5066 16.2504 56.8723 16.8847 56.0901 16.8847Z" fill="black"/>
<path d="M49.6155 27.5549H35.7893C35.0071 27.5549 34.3728 26.9206 34.3728 26.1384C34.3728 25.3561 35.0071 24.7219 35.7893 24.7219H49.6155C50.3977 24.7219 51.032 25.3561 51.032 26.1384C51.032 26.9206 50.3978 27.5549 49.6155 27.5549Z" fill="black"/>
<path d="M41.5698 34.4563H35.7893C35.0071 34.4563 34.3728 33.822 34.3728 33.0398C34.3728 32.2575 35.0071 31.6233 35.7893 31.6233H41.5698C42.3522 31.6233 42.9863 32.2575 42.9863 33.0398C42.9863 33.822 42.3522 34.4563 41.5698 34.4563Z" fill="black"/>
<path d="M23.1966 32.8283H23.1963C22.8205 32.8282 22.46 32.6788 22.1944 32.4127L19.7666 29.982C19.2137 29.4286 19.2143 28.5317 19.7678 27.9788C20.3214 27.4258 21.2182 27.4266 21.771 27.9801L23.197 29.4078L25.8381 26.7658C26.3911 26.2123 27.2881 26.2122 27.8413 26.7653C28.3945 27.3183 28.3947 28.2151 27.8417 28.7685L24.1985 32.4132C23.9329 32.679 23.5724 32.8283 23.1966 32.8283Z" fill="black"/>
<path d="M30.7052 37.9068H16.9031C16.1207 37.9068 15.4866 37.2727 15.4866 36.4903V22.6882C15.4866 21.906 16.1207 21.2717 16.9031 21.2717H30.7052C31.4875 21.2717 32.1217 21.906 32.1217 22.6882V36.4903C32.1217 37.2727 31.4875 37.9068 30.7052 37.9068ZM18.3196 35.0739H29.2887V24.1047H18.3196V35.0739Z" fill="black"/>
<path d="M49.6155 48.6674H35.7893C35.0071 48.6674 34.3728 48.0331 34.3728 47.251C34.3728 46.4686 35.0071 45.8345 35.7893 45.8345H49.6155C50.3977 45.8345 51.032 46.4686 51.032 47.251C51.032 48.0331 50.3978 48.6674 49.6155 48.6674Z" fill="black"/>
<path d="M41.5698 55.5686H35.7893C35.0071 55.5686 34.3728 54.9343 34.3728 54.1521C34.3728 53.3698 35.0071 52.7356 35.7893 52.7356H41.5698C42.3522 52.7356 42.9863 53.3698 42.9863 54.1521C42.9863 54.9343 42.3522 55.5686 41.5698 55.5686Z" fill="black"/>
<path d="M30.7052 59.0193H16.9031C16.1207 59.0193 15.4866 58.385 15.4866 57.6028V43.8005C15.4866 43.0183 16.1207 42.384 16.9031 42.384H30.7052C31.4875 42.384 32.1217 43.0183 32.1217 43.8005V57.6028C32.1217 58.385 31.4875 59.0193 30.7052 59.0193ZM18.3196 56.1863H29.2887V45.217H18.3196V56.1863Z" fill="black"/>
</g>
<defs>
<clipPath id="clip0_7_4584">
<rect width="65" height="65" fill="white" transform="translate(0.5 0.5)"/>
</clipPath>
</defs>
</svg>
