<svg width="66" height="66" viewBox="0 0 66 66" fill="none" xmlns="http://www.w3.org/2000/svg">
<path d="M18.2283 59.6858H13.6857C10.4977 59.6858 7.9043 56.941 7.9043 53.5669V32.6316C7.9043 29.2575 10.4977 26.5127 13.6857 26.5127H18.2283C21.4164 26.5127 24.0098 29.2575 24.0098 32.6316V53.5669C24.0098 56.941 21.4164 59.6858 18.2283 59.6858ZM13.694 30.0092C12.3312 30.0092 11.2162 31.1893 11.2162 32.6316V53.5669C11.2162 55.0092 12.3312 56.1893 13.694 56.1893H18.2366C19.5993 56.1893 20.7143 55.0092 20.7143 53.5669V32.6316C20.7143 31.1893 19.5993 30.0092 18.2366 30.0092H13.694Z" fill="black"/>
<path d="M60.2677 3.57568H55.7252C54.3624 3.57568 53.2474 4.75575 53.2474 6.19806V53.5669C53.2474 55.0092 54.3624 56.1893 55.7252 56.1893H60.2677C61.6305 56.1893 62.7455 55.0092 62.7455 53.5669V6.19806C62.7455 4.75575 61.6305 3.57568 60.2677 3.57568ZM39.248 14.3274H34.7055C33.3427 14.3274 32.2277 15.5075 32.2277 16.9498V53.5669C32.2277 55.0092 33.3427 56.1893 34.7055 56.1893H39.248C40.6108 56.1893 41.7258 55.0092 41.7258 53.5669V16.9498C41.7258 15.5075 40.6108 14.3274 39.248 14.3274ZM18.2283 29.9743H13.6858C12.323 29.9743 11.208 31.1544 11.208 32.5967V53.5669C11.208 55.0092 12.323 56.1893 13.6858 56.1893H18.2283C19.5911 56.1893 20.7061 55.0092 20.7061 53.5669V32.5967C20.7061 31.1544 19.5994 29.9743 18.2283 29.9743Z" fill="white"/>
<path d="M59.7186 0.5H55.176C51.9879 0.5 49.3945 3.24476 49.3945 6.61888V24.792C47.8831 24.0402 46.223 23.5507 44.4803 23.3934V17.3794C44.4803 14.0052 41.8869 11.2605 38.6989 11.2605H34.1563C30.9682 11.2605 28.3748 14.0052 28.3748 17.3794V53.9965C28.3748 57.3706 30.9682 60.1154 34.1563 60.1154H38.6989C41.8539 60.1154 44.4225 57.4318 44.4803 54.1101C46.223 53.9528 47.8831 53.4633 49.3945 52.7115V53.9965C49.3945 57.3706 51.9879 60.1154 55.176 60.1154H59.7186C62.9066 60.1154 65.5 57.3706 65.5 53.9965V6.61888C65.5 3.24476 62.8983 0.5 59.7186 0.5ZM52.6982 32.3182C53.8215 34.1713 54.474 36.3741 54.474 38.743C54.474 41.1031 53.8215 43.3059 52.6982 45.1678V32.3182ZM31.9511 38.743C31.9511 32.9038 35.932 28.035 41.1766 27.021V50.465C35.932 49.451 31.9511 44.5822 31.9511 38.743ZM34.1563 14.7483H38.6989C40.0616 14.7483 41.1766 15.9283 41.1766 17.3706V23.4808C37.3278 24.0577 33.9581 26.2255 31.6785 29.3374V17.3706C31.6785 15.9283 32.7935 14.7483 34.1563 14.7483ZM38.6989 56.6101H34.1563C32.7935 56.6101 31.6785 55.4301 31.6785 53.9878V48.1486C33.9498 51.2605 37.3196 53.4371 41.1766 54.0052C41.1684 55.4476 40.0616 56.6101 38.6989 56.6101ZM44.4803 50.5874V26.8986C46.2808 27.1084 47.9492 27.7727 49.3945 28.7867V48.708C47.9492 49.7133 46.2808 50.3776 44.4803 50.5874ZM52.6982 53.9878V52.5105L56.547 56.6101H55.176C53.805 56.6101 52.6982 55.4388 52.6982 53.9878ZM62.1963 53.9878C62.1963 54.9755 61.676 55.8409 60.9079 56.2867L54.0693 49.014C56.3736 46.2867 57.7776 42.6853 57.7776 38.743C57.7776 34.0752 55.8037 29.8794 52.6982 27.0559V6.61888C52.6982 5.17657 53.8132 3.9965 55.176 3.9965H59.7186C61.0813 3.9965 62.1963 5.17657 62.1963 6.61888V53.9878ZM64.4593 65.5H63.6334C63.1792 65.5 62.8075 65.1066 62.8075 64.6259C62.8075 64.1451 63.1792 63.7517 63.6334 63.7517H64.4593C64.9136 63.7517 65.2853 64.1451 65.2853 64.6259C65.2853 65.1066 64.9219 65.5 64.4593 65.5ZM60.3297 65.5H59.5038C59.0496 65.5 58.6779 65.1066 58.6779 64.6259C58.6779 64.1451 59.0496 63.7517 59.5038 63.7517H60.3297C60.784 63.7517 61.1557 64.1451 61.1557 64.6259C61.1557 65.1066 60.7923 65.5 60.3297 65.5ZM56.2001 65.5H55.3742C54.9199 65.5 54.5483 65.1066 54.5483 64.6259C54.5483 64.1451 54.9199 63.7517 55.3742 63.7517H56.2001C56.6544 63.7517 57.0261 64.1451 57.0261 64.6259C57.0261 65.1066 56.6626 65.5 56.2001 65.5ZM52.0705 65.5H51.2446C50.7903 65.5 50.4187 65.1066 50.4187 64.6259C50.4187 64.1451 50.7903 63.7517 51.2446 63.7517H52.0705C52.5248 63.7517 52.8964 64.1451 52.8964 64.6259C52.8964 65.1066 52.533 65.5 52.0705 65.5ZM47.9409 65.5H47.115C46.6607 65.5 46.2891 65.1066 46.2891 64.6259C46.2891 64.1451 46.6607 63.7517 47.115 63.7517H47.9409C48.3952 63.7517 48.7668 64.1451 48.7668 64.6259C48.7668 65.1066 48.4034 65.5 47.9409 65.5ZM43.8113 65.5H42.9854C42.5311 65.5 42.1595 65.1066 42.1595 64.6259C42.1595 64.1451 42.5311 63.7517 42.9854 63.7517H43.8113C44.2656 63.7517 44.6372 64.1451 44.6372 64.6259C44.6372 65.1066 44.2738 65.5 43.8113 65.5ZM39.6817 65.5H38.8558C38.4015 65.5 38.0299 65.1066 38.0299 64.6259C38.0299 64.1451 38.4015 63.7517 38.8558 63.7517H39.6817C40.136 63.7517 40.5076 64.1451 40.5076 64.6259C40.5076 65.1066 40.1442 65.5 39.6817 65.5ZM35.5521 65.5H34.7262C34.2719 65.5 33.9003 65.1066 33.9003 64.6259C33.9003 64.1451 34.2719 63.7517 34.7262 63.7517H35.5521C36.0064 63.7517 36.378 64.1451 36.378 64.6259C36.378 65.1066 36.0146 65.5 35.5521 65.5ZM31.4225 65.5H30.5966C30.1423 65.5 29.7706 65.1066 29.7706 64.6259C29.7706 64.1451 30.1423 63.7517 30.5966 63.7517H31.4225C31.8767 63.7517 32.2484 64.1451 32.2484 64.6259C32.2484 65.1066 31.885 65.5 31.4225 65.5ZM27.2929 65.5H26.467C26.0127 65.5 25.641 65.1066 25.641 64.6259C25.641 64.1451 26.0127 63.7517 26.467 63.7517H27.2929C27.7471 63.7517 28.1188 64.1451 28.1188 64.6259C28.1188 65.1066 27.7554 65.5 27.2929 65.5ZM23.1633 65.5H22.3374C21.8831 65.5 21.5114 65.1066 21.5114 64.6259C21.5114 64.1451 21.8831 63.7517 22.3374 63.7517H23.1633C23.6175 63.7517 23.9892 64.1451 23.9892 64.6259C23.9892 65.1066 23.6258 65.5 23.1633 65.5ZM19.0337 65.5H18.2078C17.7535 65.5 17.3818 65.1066 17.3818 64.6259C17.3818 64.1451 17.7535 63.7517 18.2078 63.7517H19.0337C19.4879 63.7517 19.8596 64.1451 19.8596 64.6259C19.8596 65.1066 19.4962 65.5 19.0337 65.5ZM14.9041 65.5H14.0781C13.6239 65.5 13.2522 65.1066 13.2522 64.6259C13.2522 64.1451 13.6239 63.7517 14.0781 63.7517H14.9041C15.3583 63.7517 15.73 64.1451 15.73 64.6259C15.73 65.1066 15.3666 65.5 14.9041 65.5ZM10.7745 65.5H9.94854C9.49428 65.5 9.12262 65.1066 9.12262 64.6259C9.12262 64.1451 9.49428 63.7517 9.94854 63.7517H10.7745C11.2287 63.7517 11.6004 64.1451 11.6004 64.6259C11.6004 65.1066 11.237 65.5 10.7745 65.5ZM6.64485 65.5H5.81893C5.36468 65.5 4.99301 65.1066 4.99301 64.6259C4.99301 64.1451 5.36468 63.7517 5.81893 63.7517H6.64485C7.09911 63.7517 7.47077 64.1451 7.47077 64.6259C7.47077 65.1066 7.10737 65.5 6.64485 65.5ZM2.51525 65.5H1.68933C1.23507 65.5 0.863405 65.1066 0.863405 64.6259C0.863405 64.1451 1.23507 63.7517 1.68933 63.7517H2.51525C2.9695 63.7517 3.34117 64.1451 3.34117 64.6259C3.34117 65.1066 2.97776 65.5 2.51525 65.5ZM1.32592 62.3881C0.871665 62.3881 0.5 61.9948 0.5 61.514V60.6399C0.5 60.1591 0.871665 59.7657 1.32592 59.7657C1.78018 59.7657 2.15184 60.1591 2.15184 60.6399V61.514C2.15184 61.9948 1.78018 62.3881 1.32592 62.3881ZM1.32592 58.0175C0.871665 58.0175 0.5 57.6241 0.5 57.1434V56.2692C0.5 55.7885 0.871665 55.3951 1.32592 55.3951C1.78018 55.3951 2.15184 55.7885 2.15184 56.2692V57.1434C2.15184 57.6241 1.78018 58.0175 1.32592 58.0175ZM1.32592 53.6469C0.871665 53.6469 0.5 53.2535 0.5 52.7727V51.8986C0.5 51.4178 0.871665 51.0245 1.32592 51.0245C1.78018 51.0245 2.15184 51.4178 2.15184 51.8986V52.7727C2.15184 53.2535 1.78018 53.6469 1.32592 53.6469ZM1.32592 49.2762C0.871665 49.2762 0.5 48.8829 0.5 48.4021V47.528C0.5 47.0472 0.871665 46.6538 1.32592 46.6538C1.78018 46.6538 2.15184 47.0472 2.15184 47.528V48.4021C2.15184 48.8829 1.78018 49.2762 1.32592 49.2762ZM1.32592 44.9056C0.871665 44.9056 0.5 44.5122 0.5 44.0315V43.1573C0.5 42.6766 0.871665 42.2832 1.32592 42.2832C1.78018 42.2832 2.15184 42.6766 2.15184 43.1573V44.0315C2.15184 44.5122 1.78018 44.9056 1.32592 44.9056ZM1.32592 40.535C0.871665 40.535 0.5 40.1416 0.5 39.6608V38.7867C0.5 38.3059 0.871665 37.9126 1.32592 37.9126C1.78018 37.9126 2.15184 38.3059 2.15184 38.7867V39.6608C2.15184 40.1416 1.78018 40.535 1.32592 40.535ZM1.32592 36.1643C0.871665 36.1643 0.5 35.771 0.5 35.2902V34.4161C0.5 33.9353 0.871665 33.542 1.32592 33.542C1.78018 33.542 2.15184 33.9353 2.15184 34.4161V35.2902C2.15184 35.771 1.78018 36.1643 1.32592 36.1643ZM1.32592 31.7937C0.871665 31.7937 0.5 31.4004 0.5 30.9196V30.0455C0.5 29.5647 0.871665 29.1713 1.32592 29.1713C1.78018 29.1713 2.15184 29.5647 2.15184 30.0455V30.9196C2.15184 31.4004 1.78018 31.7937 1.32592 31.7937ZM1.32592 27.4231C0.871665 27.4231 0.5 27.0297 0.5 26.549V25.6748C0.5 25.1941 0.871665 24.8007 1.32592 24.8007C1.78018 24.8007 2.15184 25.1941 2.15184 25.6748V26.549C2.15184 27.0297 1.78018 27.4231 1.32592 27.4231ZM1.32592 23.0524C0.871665 23.0524 0.5 22.6591 0.5 22.1783V21.3042C0.5 20.8234 0.871665 20.4301 1.32592 20.4301C1.78018 20.4301 2.15184 20.8234 2.15184 21.3042V22.1783C2.15184 22.6591 1.78018 23.0524 1.32592 23.0524ZM1.32592 18.6818C0.871665 18.6818 0.5 18.2885 0.5 17.8077V16.9336C0.5 16.4528 0.871665 16.0594 1.32592 16.0594C1.78018 16.0594 2.15184 16.4528 2.15184 16.9336V17.8077C2.15184 18.2885 1.78018 18.6818 1.32592 18.6818ZM1.32592 14.3112C0.871665 14.3112 0.5 13.9178 0.5 13.4371V12.5629C0.5 12.0822 0.871665 11.6888 1.32592 11.6888C1.78018 11.6888 2.15184 12.0822 2.15184 12.5629V13.4371C2.15184 13.9178 1.78018 14.3112 1.32592 14.3112ZM1.32592 9.94056C0.871665 9.94056 0.5 9.5472 0.5 9.06643V8.19231C0.5 7.71154 0.871665 7.31818 1.32592 7.31818C1.78018 7.31818 2.15184 7.71154 2.15184 8.19231V9.06643C2.15184 9.5472 1.78018 9.94056 1.32592 9.94056Z" fill="black"/>
<path d="M43.7656 26.408C37.5546 26.408 32.5 31.7576 32.5 38.331C32.5 44.9045 37.5546 50.2454 43.7656 50.2454C49.9765 50.2454 55.0311 44.8957 55.0311 38.3223C55.0311 31.7489 49.9765 26.408 43.7656 26.408Z" fill="white"/>
<path d="M43.7655 28.4009C42.6092 28.4009 41.4695 28.6194 40.3958 29.0565C39.9663 29.2313 39.7598 29.7383 39.925 30.1841C40.0902 30.6386 40.5692 30.8572 40.9904 30.6823C41.8742 30.324 42.8074 30.1404 43.7655 30.1404C48.0273 30.1404 51.4879 33.8117 51.4879 38.3135C51.4879 40.0355 50.9841 41.6788 50.0425 43.0774C49.6791 43.6194 49.2496 44.1089 48.7623 44.546C48.4154 44.8607 48.3742 45.4114 48.6715 45.7785C48.8367 45.9795 49.0679 46.0844 49.2992 46.0844C49.4891 46.0844 49.6791 46.0145 49.836 45.8746C50.4142 45.3502 50.9428 44.7558 51.3888 44.0914C52.5368 42.3956 53.148 40.4026 53.148 38.3047C53.1397 32.8502 48.9358 28.4009 43.7655 28.4009Z" fill="#343330"/>
</svg>
