<svg width="66" height="66" viewBox="0 0 66 66" fill="none" xmlns="http://www.w3.org/2000/svg">
<path d="M5.0078 53.4831C4.60838 53.4831 4.20882 53.3306 3.90414 53.0259C3.29465 52.4164 3.29465 51.428 3.90414 50.8183L7.11006 47.6123C7.71955 47.0029 8.70786 47.0029 9.31751 47.6123C9.92701 48.2218 9.92701 49.2102 9.31751 49.8198L6.1116 53.0259C5.80678 53.3306 5.40736 53.4831 5.0078 53.4831Z" fill="black"/>
<path d="M2.06085 65.5001C1.66128 65.5001 1.26187 65.3476 0.957045 65.0428C0.347548 64.4333 0.347704 63.4449 0.957201 62.8354L11.6441 52.1496C12.2536 51.5403 13.2419 51.5403 13.8514 52.1498C14.4609 52.7593 14.4607 53.7477 13.8511 54.3572L3.16419 65.0429C2.85968 65.3478 2.46027 65.5001 2.06085 65.5001Z" fill="black"/>
<path d="M11.9392 64.6915C11.5396 64.6915 11.1404 64.539 10.8355 64.2343C10.226 63.6248 10.226 62.6364 10.8355 62.0267L16.1782 56.684C16.7877 56.0747 17.776 56.0748 18.3855 56.684C18.995 57.2935 18.995 58.2819 18.3855 58.8916L13.0428 64.2343C12.7382 64.539 12.3386 64.6915 11.9392 64.6915Z" fill="black"/>
<path d="M33.046 52.9811C32.6465 52.9811 32.2472 52.8286 31.9424 52.5239L13.4764 34.0572C12.8669 33.4476 12.8669 32.4593 13.4764 31.8496C14.0859 31.2402 15.0742 31.2402 15.6839 31.8496L34.1499 50.3165C34.7593 50.926 34.7593 51.9144 34.1499 52.524C33.845 52.8287 33.4455 52.9811 33.046 52.9811Z" fill="black"/>
<path d="M41.0153 34.6088C38.444 34.6088 36.0271 33.6073 34.2095 31.7889C32.3918 29.9719 31.3904 27.5548 31.3904 24.9835C31.3904 22.4121 32.3918 19.9951 34.21 18.1774C36.0269 16.3596 38.4439 15.3582 41.0151 15.3582C43.5864 15.3582 46.0033 16.3596 47.8209 18.1779C49.6385 19.9949 50.6399 22.4119 50.6399 24.9833C50.6399 27.5544 49.6386 29.9712 47.8209 31.7887C47.8208 31.789 47.8208 31.7889 47.8203 31.7893C46.003 33.6075 43.5863 34.6088 41.0153 34.6088ZM41.0153 18.4802C39.2781 18.4802 37.6452 19.1567 36.4176 20.3851C35.1886 21.6134 34.5122 23.2464 34.5122 24.9836C34.5122 26.7209 35.1886 28.3539 36.417 29.5815C37.6452 30.8105 39.2781 31.487 41.0153 31.487C42.7525 31.487 44.3854 30.8105 45.613 29.5821C45.6133 29.582 45.6134 29.5818 45.6136 29.5815C46.842 28.3539 47.5184 26.7209 47.5184 24.9836C47.5184 23.2464 46.842 21.6134 45.6136 20.3857C44.3854 19.1567 42.7525 18.4802 41.0153 18.4802Z" fill="black"/>
<path d="M14.4368 46.7491C14.1543 46.7491 13.8684 46.6726 13.6112 46.5117C12.8801 46.055 12.6578 45.0919 13.1145 44.361L17.8734 36.7439C18.3303 36.0128 19.2933 35.7902 20.0242 36.2472C20.7553 36.7039 20.9776 37.667 20.5209 38.398L15.762 46.015C15.4659 46.4889 14.9572 46.7491 14.4368 46.7491Z" fill="black"/>
<path d="M17.6255 49.9378C17.2261 49.9378 16.8267 49.7853 16.5219 49.4806C15.9124 48.8711 15.9122 47.8828 16.5217 47.2731L22.7104 41.0842C23.3199 40.4749 24.3082 40.4749 24.9177 41.0842C25.5272 41.6937 25.5273 42.6821 24.9178 43.2916L18.7292 49.4805C18.4245 49.7855 18.025 49.9378 17.6255 49.9378Z" fill="black"/>
<path d="M20.8151 53.125C20.2947 53.125 19.786 52.865 19.49 52.3911C19.0333 51.66 19.2557 50.6969 19.9866 50.2403L27.6034 45.4812C28.3343 45.024 29.2973 45.2466 29.7542 45.9779C30.2109 46.709 29.9885 47.6719 29.2575 48.1286L21.6408 52.8877C21.3834 53.0485 21.0976 53.125 20.8151 53.125Z" fill="black"/>
<path d="M28.182 18.6842C27.8219 18.6842 27.4601 18.5602 27.1656 18.3072C26.5118 17.7455 26.437 16.7601 26.9987 16.1061L32.2602 9.9812C32.8218 9.32751 33.8072 9.25258 34.4613 9.8145C35.1151 10.3763 35.1899 11.3616 34.628 12.0155L29.3665 18.1404C29.0579 18.4997 28.6212 18.6842 28.182 18.6842Z" fill="black"/>
<path d="M25.2023 55.5639C23.5716 55.5639 21.9678 54.9263 20.779 53.7358L19.7516 52.7085C19.7371 52.695 19.7229 52.6815 19.709 52.6674L12.2649 45.2228C10.5492 43.5049 9.98251 40.9256 10.8197 38.6501L13.1157 32.4141C13.1801 32.2393 13.2752 32.0774 13.3965 31.9363L26.9974 16.1059C27.5595 15.4522 28.5446 15.3774 29.1985 15.9392C29.8523 16.5011 29.9269 17.4865 29.3652 18.1403L15.9476 33.7569L13.7491 39.7284C13.3305 40.8661 13.6142 42.1565 14.472 43.0154L21.8753 50.4191C21.8896 50.4325 21.904 50.4461 21.9179 50.4602L22.9871 51.5294C23.845 52.3885 25.1341 52.6716 26.2723 52.2521L32.2427 50.0529L53.9851 31.3731C54.6393 30.8112 55.6246 30.8863 56.1862 31.5398C56.7481 32.1937 56.6733 33.1792 56.0195 33.741L34.0632 52.604C33.9221 52.7253 33.7604 52.8205 33.5858 52.8848L27.3517 55.1809C26.6526 55.4387 25.9247 55.5639 25.2023 55.5639Z" fill="black"/>
<path d="M55.0024 34.118C54.6029 34.118 54.2035 33.9655 53.8987 33.6608C53.2892 33.0513 53.2892 32.063 53.8987 31.4533C57.0024 28.3497 59.3057 24.6924 60.7449 20.5827C62.5767 15.3519 62.8717 9.77365 61.609 4.39128C56.2273 3.12868 50.6488 3.42369 45.4182 5.25538C41.3087 6.69466 37.6514 8.99821 34.5479 12.1019C33.9384 12.7112 32.9502 12.7114 32.3404 12.1019C31.7309 11.4923 31.7309 10.504 32.3404 9.89431C35.7781 6.45663 39.8309 3.90444 44.3862 2.30907C50.498 0.168949 57.0378 -0.0775138 63.2987 1.59715C63.8378 1.74138 64.2589 2.1625 64.4031 2.70163C66.0776 8.96293 65.8314 15.503 63.6909 21.6148C62.0956 26.1702 59.5437 30.223 56.106 33.6608C55.8013 33.9655 55.4019 34.118 55.0024 34.118Z" fill="black"/>
<path d="M62.2159 22.6594C61.8164 22.6594 61.4171 22.5069 61.1123 22.2022L43.7982 4.88723C43.1887 4.27771 43.1887 3.28936 43.7982 2.67968C44.4082 2.07016 45.3961 2.07047 46.0056 2.67968L63.3198 19.9946C63.9293 20.6042 63.9293 21.5925 63.3198 22.2022C63.0148 22.5069 62.6154 22.6594 62.2159 22.6594Z" fill="black"/>
<path d="M14.5813 34.515C14.4514 34.515 14.3206 34.4988 14.1947 34.4668L3.84178 31.832C3.36776 31.7113 2.97755 31.3753 2.78807 30.9245C2.59843 30.4736 2.63121 29.9597 2.87641 29.5366C4.09041 27.4422 5.5852 25.5001 7.31958 23.7641C12.8263 18.2572 20.449 15.2659 28.2326 15.5638C29.0706 15.5912 29.7421 16.2791 29.7421 17.1237C29.7421 17.9856 29.0441 18.6846 28.182 18.6846H28.1805C28.1607 18.6846 28.1408 18.6843 28.121 18.6835C21.2007 18.4183 14.4225 21.0755 9.52751 25.9709C8.48426 27.015 7.53872 28.1427 6.70228 29.3387L14.9324 31.4332C15.6247 31.593 16.1413 32.2133 16.1413 32.954C16.1413 33.816 15.4433 34.515 14.5813 34.515Z" fill="black"/>
<path d="M35.6825 63.3362C35.4772 63.3362 35.2715 63.2958 35.0775 63.2142C34.6264 63.0245 34.2905 62.6345 34.1699 62.1606L31.5335 51.8057C31.3208 50.9702 31.8257 50.1206 32.661 49.908C33.4959 49.6948 34.3459 50.2 34.5587 51.0354L36.6626 59.2999C37.8587 58.4635 38.9865 57.5176 40.031 56.4741C44.9258 51.5792 47.5819 44.8011 47.3175 37.8785C47.2848 37.017 47.9564 36.2921 48.8176 36.2592C49.6775 36.2228 50.4041 36.8981 50.437 37.7594C50.734 45.5477 47.7457 53.1738 42.2377 58.682C40.5015 60.4166 38.5594 61.9116 36.4649 63.1258C36.2242 63.2655 35.9537 63.3362 35.6825 63.3362Z" fill="black"/>
</svg>
